<?xml version="1.0" standalone="no"?>
<!DOCTYPE svg PUBLIC "-//W3C//DTD SVG 20010904//EN"
 "http://www.w3.org/TR/2001/REC-SVG-20010904/DTD/svg10.dtd">
<svg version="1.0" xmlns="http://www.w3.org/2000/svg"
 width="512.000000pt" height="512.000000pt" viewBox="0 0 512.000000 512.000000"
 preserveAspectRatio="xMidYMid meet">
<metadata>
Created by potrace 1.16, written by Peter Selinger 2001-2019
</metadata>
<g transform="translate(0.000000,512.000000) scale(0.100000,-0.100000)"
fill="#000000" stroke="none">
<path d="M2042 4740 c-24 -11 -56 -29 -71 -39 -15 -11 -243 -317 -507 -680
l-479 -660 -350 -3 -350 -3 -60 -29 c-77 -38 -153 -114 -191 -191 -27 -56 -29
-68 -29 -175 0 -107 2 -119 29 -175 54 -110 183 -209 298 -229 21 -4 49 -17
63 -29 25 -21 34 -68 200 -982 96 -528 182 -980 192 -1005 9 -25 39 -67 67
-96 92 -92 -60 -84 1706 -84 1766 0 1614 -8 1706 84 28 29 58 71 67 96 10 25
96 477 192 1005 166 914 175 961 200 982 14 12 42 25 63 29 116 21 244 119
298 229 27 56 29 68 29 175 0 107 -2 119 -29 175 -38 77 -114 153 -191 191
l-60 29 -350 3 -350 3 -465 641 c-256 353 -475 654 -488 669 -12 15 -50 42
-84 58 -52 27 -72 31 -138 31 -66 0 -86 -4 -138 -31 -34 -16 -73 -45 -88 -62
-78 -92 -99 -228 -51 -330 14 -28 183 -259 375 -512 l349 -460 -423 -3 c-233
-1 -615 -1 -848 0 l-423 3 349 460 c192 253 360 483 374 510 37 77 34 181 -7
263 -34 69 -71 104 -144 138 -66 31 -179 33 -243 4z m184 -215 c20 -20 25 -33
22 -65 -3 -35 -52 -105 -403 -569 l-400 -530 -98 0 c-73 -1 -96 2 -91 11 19
31 817 1127 838 1151 33 37 96 38 132 2z m800 -2 c21 -24 819 -1120 838 -1151
5 -9 -18 -12 -91 -11 l-98 0 -400 530 c-350 464 -400 535 -403 569 -4 55 30
90 89 90 33 0 46 -6 65 -27z m1779 -1389 c71 -38 105 -95 105 -175 0 -70 -35
-129 -98 -166 l-47 -28 -926 -3 -927 -3 -26 -26 c-37 -37 -37 -109 0 -147 l27
-26 793 0 c631 0 792 -3 789 -12 -3 -7 -83 -444 -179 -971 -130 -711 -179
-964 -192 -978 -9 -10 -33 -23 -53 -29 -56 -15 -2985 -12 -3031 3 -24 8 -41
23 -53 47 -10 21 -86 413 -188 980 -94 520 -173 948 -175 952 -3 5 352 8 789
8 l794 0 27 26 c37 38 37 110 0 147 l-26 26 -927 3 c-925 3 -926 3 -966 24
-71 38 -105 95 -105 174 0 99 59 170 160 191 19 4 1016 6 2215 5 l2180 -1 40
-21z"/>
<path d="M2486 2734 c-21 -21 -26 -36 -26 -74 0 -38 5 -53 26 -74 21 -21 36
-26 74 -26 38 0 53 5 74 26 21 21 26 36 26 74 0 38 -5 53 -26 74 -21 21 -36
26 -74 26 -38 0 -53 -5 -74 -26z"/>
<path d="M1422 2229 c-69 -34 -104 -71 -138 -144 l-24 -50 0 -476 0 -476 31
-61 c53 -108 144 -162 269 -162 125 0 216 54 269 162 l31 61 0 477 0 477 -31
61 c-53 108 -143 162 -270 162 -65 0 -85 -4 -137 -31z m195 -194 c12 -9 27
-32 33 -53 11 -40 14 -777 4 -831 -22 -107 -166 -107 -188 0 -10 54 -7 791 4
831 13 46 43 68 90 68 20 0 45 -7 57 -15z"/>
<path d="M2422 2229 c-69 -34 -104 -71 -138 -144 l-24 -50 0 -476 0 -476 31
-61 c53 -108 144 -162 269 -162 125 0 216 54 269 162 l31 61 0 477 0 477 -31
61 c-53 108 -143 162 -270 162 -65 0 -85 -4 -137 -31z m195 -194 c12 -9 27
-32 33 -53 11 -40 14 -777 4 -831 -22 -107 -166 -107 -188 0 -10 54 -7 791 4
831 13 46 43 68 90 68 20 0 45 -7 57 -15z"/>
<path d="M3422 2229 c-69 -34 -104 -71 -138 -144 l-24 -50 0 -476 0 -476 31
-61 c53 -108 144 -162 269 -162 125 0 216 54 269 162 l31 61 0 477 0 477 -31
61 c-53 108 -143 162 -270 162 -65 0 -85 -4 -137 -31z m195 -194 c12 -9 27
-32 33 -53 11 -40 14 -777 4 -831 -22 -107 -166 -107 -188 0 -10 54 -7 791 4
831 13 46 43 68 90 68 20 0 45 -7 57 -15z"/>
</g>
</svg>
