<?xml version="1.0" standalone="no"?>
<!DOCTYPE svg PUBLIC "-//W3C//DTD SVG 20010904//EN"
 "http://www.w3.org/TR/2001/REC-SVG-20010904/DTD/svg10.dtd">
<svg version="1.0" xmlns="http://www.w3.org/2000/svg"
 width="229.000000pt" height="220.000000pt" viewBox="0 0 229.000000 220.000000"
 preserveAspectRatio="xMidYMid meet">
<metadata>
Created by potrace 1.16, written by Peter Selinger 2001-2019
</metadata>
<g transform="translate(0.000000,220.000000) scale(0.100000,-0.100000)"
fill="#000000" stroke="none">
<path d="M2053 2080 c-30 -12 -16 9 -588 -868 -280 -429 -512 -781 -515 -781
-3 0 -100 81 -216 182 -545 471 -490 427 -538 427 -55 0 -91 -27 -107 -80 -10
-33 -9 -43 7 -73 15 -27 553 -503 802 -709 38 -32 87 -37 130 -14 32 17 1161
1737 1176 1791 23 85 -67 159 -151 125z"/>
</g>
</svg>
