<?xml version="1.0" encoding="utf-8"?>
<!-- Generator: Adobe Illustrator 27.9.0, SVG Export Plug-In . SVG Version: 6.00 Build 0)  -->
<svg version="1.1" id="Capa_1" xmlns="http://www.w3.org/2000/svg" xmlns:xlink="http://www.w3.org/1999/xlink" x="0px" y="0px"
	 viewBox="0 0 2987.72 1080" enable-background="new 0 0 2987.72 1080" xml:space="preserve">
<path stroke="#FFFFFF" stroke-width="8" stroke-miterlimit="10" d="M812.5,473.51c-67.24-55.61-156.53-86.24-251.42-86.24
	s-184.18,30.63-251.42,86.24c-67.76,56.04-105.08,130.71-105.08,210.25s37.32,154.21,105.08,210.25
	c67.24,55.61,156.53,86.24,251.42,86.24s184.18-30.63,251.42-86.24c67.76-56.04,105.08-130.71,105.08-210.25
	S880.26,529.55,812.5,473.51z"/>
<path stroke="#FFFFFF" stroke-width="8" stroke-miterlimit="10" d="M305.7,441.11c0,0-33.54,17.11-59.19,49.78
	c-25.41,32.37-37.55,64.57-37.55,64.57c-6.38,7.55-18.23,6.44-23.26-2.06c-12.84-21.69-27.66-62.89,6.46-107.22
	c34.77-45.18,82-36.93,107.54-27.71C309.05,421.83,312.13,433.51,305.7,441.11z"/>
<path stroke="#FFFFFF" stroke-width="8" stroke-miterlimit="10" d="M700.82,387.32c0,0,44.33,14.96,72.09,32.95
	c38.05,24.66,63.99,49.04,63.99,49.04c10.52,6.34,24.21,0.75,27.19-11.16c6.92-27.66,10.58-73.61-30.24-99.15
	c-53.88-33.71-103.23-37.34-137.37,0.58C688.86,368.03,691.07,381.44,700.82,387.32z"/>
<g>
	<path fill="#FFFFFF" d="M670.71,594.01c-0.21,0.01-0.41,0.03-0.63,0.04c-14.88,1.04-32.54,3.85-44.1,14.07
		c-10.21,9.02-14.03,23.95-9.7,36.88c8.84,26.43,41.57,34.72,61.93,16.27C696.67,644.55,695.69,603.22,670.71,594.01z"/>
	<path fill="#FFFFFF" d="M553.09,378.63c-193.89,0-351.07,129.99-351.07,290.35c0,160.35,157.18,290.35,351.07,290.35
		s351.07-129.99,351.07-290.35C904.16,508.63,746.98,378.63,553.09,378.63z M474.87,746.02c-16.66-0.32-33.79-0.99-50.58-3.41
		c-14.6-0.9-29.15-3.42-43.01-7.5c-21.22-6.25-41.77-18.49-54.73-36.77c-14.06-19.82-41.46-65.52-14.13-129.48
		c31.9-74.67,143.84-57.75,165.88-48.32c0.78-7.81,1.56-15.63,2.34-23.44c2.1-21.05,34.76-17.7,32.66,3.32
		c-2.96,29.65-19.97,226.26-20.45,230.93C491.91,740.69,483.73,746.19,474.87,746.02z M539.95,834.31
		c-17.03-0.01-54.06-31.16-46.56-51.56c6.21-16.89,64.11-27.53,87.13,0.71C587.92,792.55,569.53,834.33,539.95,834.31z
		 M749.09,727.22c-15.96,4.78-32.48,9.39-49.2,12.21c-14.17,3.6-28.8,5.66-43.24,6.01c-22.11,0.53-45.42-4.84-63.35-18.28
		c-19.44-14.57-59.5-49.71-53.03-118.96c7.55-80.84,119.3-98.95,143.18-96.71c-1.65-7.68-3.29-15.36-4.94-23.03
		c-4.43-20.69,27.68-27.47,32.11-6.82c6.24,29.14,50.14,221.54,51.12,226.13C763.69,716.94,757.59,724.67,749.09,727.22z"/>
	<path fill="#FFFFFF" d="M440.95,595.22c-0.21-0.05-0.4-0.1-0.61-0.15c-14.49-3.55-32.16-6.28-46.3-0.08
		c-12.48,5.47-20.68,18.51-20.51,32.15c0.34,27.86,28.97,45.77,54,34.42C450.22,651.28,461.92,611.63,440.95,595.22z"/>
</g>
<g>
	<path d="M685.39,178.05C685.34,178.02,685.33,178.01,685.39,178.05L685.39,178.05z"/>
	<path d="M709.83,209.96c-0.02-0.05-0.04-0.09-0.06-0.14c-0.04-0.09-0.08-0.19-0.12-0.28C709.57,209.38,709.58,209.4,709.83,209.96z
		"/>
	<path d="M722.19,199.35c-12.42-26.32-37.02-44.86-65.2-51.37c-28.45-6.57-59.93-1.98-84.52,14.09c-0.48,0.31-0.94,0.64-1.41,0.96
		c-17.76-29.35-47.9-51-81.15-59.16c-36.49-8.95-75.64-0.48-105.78,21.82c-15.83,11.71-29.25,26.59-38.38,44.07
		c-41.85,4.19-77.68,35.11-92.12,74.15c-8.13,21.99-7.86,45.63-0.87,67.89c3.98,12.68,9.59,25.26,16.5,36.62
		c6.65,10.93,15.9,19.83,28.45,23.39c7.8,2.21,15.91,2.26,23.94,1.35c3.38,8.76,6.66,17.57,9.45,26.54
		c3.04,9.78,5.43,19.73,7.35,29.78c0.1,0.5,0.26,0.98,0.47,1.43c-0.21,0.71-0.32,1.43-0.29,2.15c0.2,4.58,3.46,7.46,7.86,7.86
		c21.24,1.93,42.57,2.91,63.9,2.89c21.3-0.02,42.59-1.01,63.8-2.99c21.68-2.02,43.29-5.03,64.7-9.05
		c20.82-3.91,41.45-8.79,61.81-14.65c20.48-5.89,40.68-12.77,60.5-20.62c2.48-0.98,4.96-1.98,7.42-2.99
		c0.06-0.03,0.13-0.05,0.19-0.08c1.24-0.35,2.39-0.98,3.28-1.94c0.07-0.08,0.14-0.16,0.21-0.24c0.37-0.39,0.71-0.83,1.02-1.35
		c0.04-0.06,0.07-0.14,0.1-0.2c0.69-1.16,1.14-2.49,0.97-3.76c0-0.01,0-0.02,0-0.03c0.01-0.72-0.07-1.42-0.28-2.06
		c-0.01-0.03-0.02-0.06-0.03-0.09c-1.29-8.79-3.26-17.39-5.45-26c-1.09-4.29-2.19-8.58-3.16-12.9c-0.49-2.19-0.96-4.39-1.37-6.6
		c-0.07-0.35-0.12-0.7-0.18-1.05c13.64-4.35,26.27-11.38,37.07-20.8c11.05-9.63,19.34-21.62,24.77-35.2
		C736.18,255.07,734.1,224.59,722.19,199.35z M550.77,161.06C550.1,160.22,550.53,160.75,550.77,161.06L550.77,161.06z
		 M446.15,116.8C446.49,116.76,446.79,116.73,446.15,116.8L446.15,116.8z M417.27,124.74C418.5,124.21,417.62,124.6,417.27,124.74
		L417.27,124.74z M344.54,185.6C344.78,185.57,344.88,185.56,344.54,185.6L344.54,185.6z M542.82,415.03
		c-10.43,2.09-20.91,3.93-31.43,5.53c-2.53,0.38-5.07,0.76-7.6,1.11c-0.68,0.1-1.37,0.19-2.05,0.28c-0.16,0.02-0.74,0.1-1.09,0.15
		c-0.14,0.02-0.27,0.04-0.34,0.04c-0.29,0.04-0.59,0.08-0.88,0.12c-0.68,0.09-1.37,0.18-2.05,0.27c-5.28,0.67-10.56,1.29-15.85,1.84
		c-21.08,2.2-42.26,3.42-63.46,3.67c-21.23,0.25-42.46-0.47-63.62-2.16c-0.27-0.02-0.54-0.05-0.81-0.07
		c-0.02-0.17-0.02-0.34-0.06-0.51c-1.92-10.05-4.31-20.01-7.35-29.78c-2.63-8.48-5.7-16.8-8.89-25.09
		c6.37-1.37,12.7-2.95,19.09-4.25c3.14-0.64,6.3-1.23,9.48-1.67c0.37-0.04,1.08-0.13,1.19-0.14c0.93-0.1,1.87-0.19,2.81-0.27
		c1.17-0.09,2.34-0.15,3.51-0.19c3.72,3.21,7.58,6.26,11.62,9.11c8.87,6.25,18.56,11.29,28.8,14.88c11.95,4.19,24.7,5.82,37.31,6.12
		c23.72,0.56,47.43-3.89,69.25-13.15c20.34-8.63,38.81-21.92,52.86-39.03c2.49-3.03,4.85-6.17,7.09-9.41
		c21.5,8.97,45.37,12.32,68.35,8.47c1.22,6.7,2.77,13.31,4.45,19.93c1.09,4.29,2.19,8.58,3.16,12.9c0.49,2.19,0.96,4.39,1.37,6.6
		c0.04,0.23,0.08,0.46,0.12,0.68c-17.52,6.96-35.33,13.17-53.38,18.61C584.17,405.73,563.59,410.87,542.82,415.03z M388.63,356.21
		c0.28,0.17,1.34,1.07,0.34,0.27C388.86,356.39,388.75,356.3,388.63,356.21z M716.57,250.55c-0.09,1.6-0.23,3.2-0.4,4.8
		c-0.02,0.21-0.15,1.24-0.19,1.57c-0.01,0.09-0.03,0.17-0.03,0.22c-0.07,0.49-0.15,0.99-0.24,1.48c-0.53,3.15-1.22,6.28-2.08,9.35
		c-0.83,2.97-1.81,5.9-2.94,8.77c-0.16,0.4-0.47,1.11-0.51,1.22c-0.23,0.52-0.46,1.04-0.7,1.56c-0.67,1.44-1.39,2.86-2.15,4.26
		c-1.52,2.81-3.2,5.52-5.04,8.13c-0.4,0.57-0.83,1.13-1.24,1.7c-0.01,0.01-0.01,0.01-0.02,0.03c-0.2,0.25-0.4,0.51-0.6,0.76
		c-1.05,1.29-2.14,2.55-3.27,3.77c-2.38,2.58-4.9,5.03-7.55,7.33c-0.57,0.5-1.15,0.99-1.74,1.47c-0.16,0.13-0.97,0.77-1.29,1.04
		c-1.25,0.95-2.53,1.88-3.83,2.77c-2.82,1.92-5.74,3.69-8.75,5.29c-1.4,0.75-2.83,1.46-4.27,2.14c-0.67,0.32-1.35,0.62-2.02,0.92
		c-0.23,0.1-0.45,0.2-0.68,0.3c-0.13,0.05-0.37,0.15-0.66,0.27c-6.2,2.48-12.65,4.33-19.21,5.55c-0.84,0.16-1.67,0.3-2.51,0.44
		c-0.17,0.03-0.86,0.13-1.33,0.21c-0.24,0.03-0.58,0.08-0.7,0.09c-0.42,0.05-0.85,0.1-1.27,0.15c-0.96,0.1-1.91,0.2-2.87,0.28
		c-3.31,0.27-6.64,0.4-9.96,0.38c-3.34-0.02-6.69-0.19-10.02-0.51c-0.86-0.08-1.72-0.17-2.59-0.27c-0.34-0.04-0.69-0.08-1.03-0.13
		c-0.04-0.01-0.06-0.01-0.11-0.02c-1.72-0.26-3.44-0.54-5.15-0.87c-6.79-1.3-13.47-3.19-19.94-5.64c-0.36-0.14-0.72-0.28-1.09-0.42
		c5.93-11.14,10.25-23.11,12.4-35.59c0.53-3.07,0.94-6.16,1.27-9.26c0.43-4.1-3.92-8.04-7.86-7.86c-4.63,0.21-7.39,3.46-7.86,7.86
		c-0.07,0.66-0.15,1.32-0.22,1.99c-0.01,0.05-0.01,0.08-0.01,0.12c0,0.01,0,0.01,0,0.02c-0.18,1.23-0.38,2.47-0.6,3.69
		c-0.46,2.53-1,5.05-1.63,7.55c-1.22,4.83-2.77,9.57-4.62,14.2c-0.22,0.54-0.45,1.07-0.66,1.62c0.82-2.2,0.02-0.05-0.19,0.41
		c-0.54,1.22-1.09,2.43-1.67,3.62c-1.08,2.25-2.24,4.47-3.46,6.64c-0.74,1.33-1.52,2.64-2.31,3.94c-0.05,0.07-0.09,0.15-0.14,0.23
		c-1.77,2.89-3.65,5.71-5.64,8.45c-0.39,0.54-0.79,1.08-1.19,1.61c-0.08,0.1-0.16,0.21-0.24,0.31c-0.75,0.94-1.5,1.89-2.27,2.81
		c-1.65,1.99-3.37,3.93-5.14,5.82c-3.43,3.65-7.07,7.11-10.91,10.33c-0.96,0.81-1.93,1.6-2.91,2.38c-0.12,0.09-0.24,0.19-0.36,0.28
		c-0.47,0.36-0.95,0.72-1.43,1.07c-2.25,1.66-4.55,3.25-6.9,4.77c-4.55,2.94-9.28,5.6-14.15,7.98c-1.22,0.6-2.44,1.17-3.68,1.73
		c-0.58,0.26-1.15,0.52-1.73,0.77c-0.23,0.1-0.47,0.2-0.7,0.3c0.03-0.01,0.06-0.02,0.09-0.03c-0.03,0.01-0.06,0.02-0.09,0.03
		c-0.1,0.04-0.2,0.08-0.29,0.13c-0.82,0.35-0.25,0.08,0.2-0.09c-2.5,0.83-4.92,1.98-7.41,2.86c-5.21,1.84-10.52,3.4-15.89,4.67
		c-2.65,0.63-5.31,1.18-7.99,1.67c-1.34,0.24-2.68,0.47-4.03,0.68c-0.63,0.1-1.26,0.19-1.88,0.28c-0.24,0.04-0.49,0.07-0.73,0.1
		c-0.05,0.01-0.09,0.01-0.15,0.02c-5.41,0.65-10.83,1.09-16.28,1.23c-5.78,0.15-11.57,0.01-17.33-0.47
		c-1.55-0.13-3.1-0.29-4.65-0.47c-0.19-0.02-0.87-0.12-0.91-0.12c-0.85-0.13-1.7-0.26-2.55-0.4c-2.93-0.5-5.84-1.12-8.71-1.88
		c-2.41-0.64-4.79-1.37-7.14-2.2c-1.17-0.41-2.33-0.84-3.49-1.3c-0.46-0.18-0.91-0.37-1.37-0.55c-0.29-0.12-0.57-0.25-0.86-0.38
		c-4.52-2.01-8.9-4.35-13.11-6.95c-2.11-1.31-4.19-2.68-6.22-4.11c-1.02-0.72-2.03-1.45-3.03-2.2c-0.33-0.25-0.95-0.96-1.35-1.04
		c-0.14-0.11-0.28-0.22-0.42-0.33c-4-3.19-7.82-6.6-11.47-10.18c-3.68-3.6-7.19-7.38-10.54-11.28c-1.65-1.92-3.27-3.88-4.84-5.86
		c-0.37-0.46-0.73-0.93-1.1-1.39c-0.07-0.09-0.13-0.16-0.18-0.23c-0.81-1.07-1.62-2.13-2.41-3.21c-1.49-2.02-2.95-4.07-4.38-6.14
		c-2.33-3.38-7-5.24-10.75-2.82c-3.36,2.16-5.32,7.13-2.82,10.75c5.88,8.51,12.25,16.68,19.22,24.28
		c-6.3,1.07-12.55,2.51-18.76,3.93c-5.36,1.23-10.72,2.45-16.15,3.33c-0.69,0.11-1.38,0.21-2.07,0.32c-0.12,0.02-0.21,0.03-0.3,0.05
		c-0.1,0.01-0.21,0.02-0.35,0.04c-1.13,0.12-2.26,0.25-3.39,0.34c-2.65,0.21-5.31,0.29-7.96,0.17c-1.08-0.05-2.16-0.14-3.23-0.26
		c0.19-0.01-1.93-0.33-2.35-0.42c-1.25-0.27-2.49-0.6-3.7-0.99c-0.61-0.2-1.21-0.43-1.82-0.64c-0.11-0.04-0.2-0.07-0.27-0.09
		c-0.06-0.03-0.14-0.07-0.24-0.12c-1.18-0.6-2.35-1.17-3.49-1.86c-0.58-0.35-1.14-0.72-1.7-1.1c-0.07-0.05-0.89-0.68-1.06-0.79
		c-2.08-1.74-3.97-3.71-5.67-5.83c-0.11-0.15-0.24-0.32-0.29-0.38c-0.43-0.61-0.87-1.21-1.29-1.83c-0.84-1.24-1.64-2.51-2.4-3.79
		c-1.56-2.62-3-5.32-4.4-8.03c-1.36-2.64-2.66-5.3-3.9-8c-0.62-1.35-1.22-2.7-1.81-4.07c-0.06-0.13-0.09-0.21-0.12-0.27
		c-0.05-0.13-0.11-0.27-0.18-0.46c-0.4-1-0.81-2-1.19-3.01c-2.22-5.77-4.09-11.68-5.47-17.71c-0.63-2.75-1.15-5.52-1.57-8.3
		c-0.04-0.32-0.2-1.49-0.2-1.51c-0.07-0.63-0.14-1.26-0.19-1.89c-0.11-1.26-0.2-2.52-0.26-3.78c-0.23-5.01,0.02-9.98,0.57-14.96
		c-0.01,0.06-0.02,0.11-0.03,0.18c0.01-0.07,0.02-0.14,0.03-0.21c0-0.01,0-0.02,0-0.03c0.02-0.2,0.09-0.59,0.11-0.69
		c0.05-0.31,0.09-0.62,0.14-0.93c0.2-1.23,0.43-2.46,0.68-3.68c0.5-2.45,1.1-4.88,1.79-7.28c0.63-2.21,1.34-4.39,2.13-6.54
		c0.39-1.08,0.8-2.15,1.23-3.22c0.06-0.16,0.19-0.45,0.27-0.67c0.26-0.6,0.52-1.19,0.78-1.78c2-4.39,4.3-8.64,6.87-12.72
		c1.23-1.96,2.52-3.87,3.88-5.75c0.37-0.51,0.74-1.02,1.12-1.53c0.08-0.11,0.42-0.55,0.63-0.81c0.68-0.85,1.36-1.71,2.06-2.54
		c3.24-3.87,6.75-7.51,10.5-10.9c0.93-0.85,1.88-1.68,2.85-2.49c0.48-0.41,0.97-0.81,1.45-1.21c0.16-0.13,1-0.79,1.31-1.04
		c2.02-1.54,4.1-3.01,6.23-4.4c4.55-2.96,9.32-5.58,14.28-7.78c0.24-0.1,0.47-0.21,0.71-0.31c-0.9,0.4,1.15-0.46,1.45-0.58
		c1.26-0.49,2.53-0.96,3.81-1.39c2.56-0.88,5.16-1.64,7.79-2.29c2.64-0.65,5.3-1.18,7.98-1.58c0.11-0.02,0.29-0.04,0.46-0.06
		c0.71-0.08,1.42-0.17,2.13-0.24c1.47-0.14,2.94-0.24,4.41-0.31c2.62-0.13,5.58-1.37,6.79-3.89c1.91-3.98,4.03-7.85,6.37-11.59
		c1.05-1.68,2.15-3.33,3.29-4.95c0.63-0.9,1.28-1.79,1.94-2.68c0.26-0.35,0.53-0.7,0.79-1.06c-1.03,1.37,0.16-0.2,0.4-0.49
		c5.36-6.72,11.44-12.86,18.08-18.33c0.81-0.67,1.62-1.32,2.45-1.96c0.04-0.03,0.07-0.05,0.12-0.09c0.44-0.33,0.88-0.66,1.33-0.99
		c1.78-1.31,3.59-2.57,5.43-3.78c3.6-2.37,7.31-4.55,11.13-6.54c1.76-0.92,3.54-1.8,5.34-2.63c1-0.46,2-0.91,3.01-1.35
		c0.7-0.29,1.4-0.57,2.11-0.85c4-1.57,8.08-2.93,12.23-4.07c4.03-1.11,8.13-2.01,12.26-2.69c0.65-0.11,1.31-0.2,1.96-0.3
		c0.04-0.01,0.09-0.01,0.15-0.02c1-0.12,2-0.24,3-0.34c2.19-0.22,4.39-0.38,6.6-0.47c4.2-0.17,8.42-0.11,12.62,0.19
		c2.1,0.15,4.19,0.38,6.28,0.62c0.01,0,0.01,0,0.01,0c0.06,0.01,0.12,0.02,0.2,0.03c0.44,0.07,0.88,0.13,1.31,0.2
		c1.31,0.21,2.62,0.44,3.92,0.69c4.13,0.8,8.22,1.81,12.24,3.03c2.01,0.61,4.01,1.27,5.99,1.99c0.94,0.34,1.87,0.69,2.8,1.05
		c0.52,0.2,1.03,0.4,1.55,0.61c0.14,0.06,1.06,0.44,1.35,0.56c0.35,0.15,0.76,0.33,0.75,0.33c0.41,0.18,0.81,0.36,1.21,0.55
		c1.01,0.46,2.01,0.93,3.01,1.42c1.99,0.97,3.96,2,5.9,3.07c3.78,2.1,7.46,4.39,11.01,6.86c1,0.7,1.99,1.41,2.97,2.13
		c0.36,0.26,0.71,0.53,1.07,0.8c0.11,0.08,0.19,0.14,0.27,0.2c0.06,0.05,0.14,0.11,0.25,0.2c1.9,1.53,3.78,3.08,5.61,4.7
		c3.64,3.24,7.09,6.69,10.33,10.33c1.59,1.8,3.11,3.65,4.61,5.52c0.02,0.03,0.04,0.05,0.06,0.07c0.4,0.53,0.8,1.06,1.19,1.6
		c0.78,1.07,1.55,2.16,2.29,3.26c2.74,4.04,5.21,8.24,7.42,12.59c1.1,2.16,3.43,3.44,5.74,3.75c2.63,0.35,4.59-0.52,6.6-2.16
		c0.21-0.17,1.46-1.15,1.4-1.12c0.42-0.31,0.84-0.63,1.26-0.94c1.45-1.05,2.93-2.06,4.43-3.02c2.74-1.75,5.58-3.36,8.49-4.81
		c1.41-0.71,2.84-1.36,4.28-2.01c0.1-0.04,0.15-0.07,0.22-0.1c0.27-0.11,0.54-0.22,0.8-0.33c0.88-0.35,1.76-0.69,2.65-1.02
		c3.06-1.13,6.17-2.11,9.33-2.94c3.26-0.86,6.56-1.55,9.89-2.09c0.18-0.03,0.9-0.14,1.36-0.21c0.23-0.03,0.51-0.07,0.62-0.08
		c0.42-0.05,0.84-0.1,1.26-0.14c1.68-0.18,3.36-0.32,5.04-0.43c6.46-0.39,12.95-0.16,19.37,0.62c0.38,0.06,1.2,0.17,1.51,0.22
		c0.73,0.12,1.45,0.24,2.17,0.37c1.75,0.32,3.5,0.69,5.23,1.1c3.16,0.75,6.27,1.65,9.34,2.71c1.48,0.51,2.95,1.06,4.4,1.64
		c0.26,0.1,0.52,0.21,0.78,0.32c0.07,0.03,0.13,0.06,0.23,0.1c0.76,0.34,1.52,0.68,2.28,1.04c3.02,1.43,5.96,3.02,8.8,4.77
		c1.33,0.82,2.64,1.68,3.93,2.58c0.6,0.42,1.2,0.84,1.79,1.28c0.34,0.25,0.67,0.51,1.01,0.75c-0.33-0.24-0.51-0.37-0.58-0.42
		c0.13,0.1,0.57,0.42,0.73,0.54c2.59,2.06,5.05,4.28,7.37,6.64c2.05,2.08,3.95,4.29,5.77,6.56c0.22,0.29,0.82,1.08,0.96,1.27
		c0.41,0.57,0.82,1.14,1.21,1.72c0.97,1.4,1.89,2.83,2.77,4.29c1.61,2.66,3.08,5.4,4.4,8.21c0.34,0.73,0.68,1.46,1,2.19
		c0.01,0.02,0.02,0.05,0.03,0.07c0.03,0.07,0.08,0.17,0.12,0.28c0.07,0.16,0.14,0.32,0.21,0.48c-0.06-0.14-0.1-0.23-0.15-0.33
		c0.02,0.05,0.04,0.09,0.05,0.13c0.59,1.49,1.17,2.99,1.7,4.51c1.06,3.04,1.96,6.13,2.71,9.27c0.35,1.47,0.67,2.95,0.95,4.43
		c0.14,0.73,1.27,4.52,0.84,5.07c0,0-0.18-1.54-0.09-0.59c0.04,0.4,0.1,0.8,0.14,1.2c0.09,0.8,0.17,1.6,0.24,2.41
		c0.14,1.6,0.24,3.21,0.3,4.82C716.78,244.32,716.75,247.44,716.57,250.55z"/>
	<path d="M263.83,267.12c-0.04,0.24-0.07,0.48-0.11,0.72c0,0.01,0,0.02,0,0.03C263.83,267.18,263.85,267.03,263.83,267.12z"/>
	<path d="M513.78,366.72C513.78,366.72,513.78,366.72,513.78,366.72c-0.03,0.01-0.06,0.02-0.09,0.03
		C513.72,366.75,513.75,366.73,513.78,366.72z"/>
</g>
<g>
	<path fill="#FFFFFF" d="M685.49,178.13C685.44,178.09,685.42,178.08,685.49,178.13L685.49,178.13z"/>
	<path fill="#FFFFFF" d="M709.93,210.04c-0.02-0.05-0.04-0.09-0.06-0.14c-0.04-0.09-0.08-0.19-0.12-0.28
		C709.67,209.45,709.68,209.47,709.93,210.04z"/>
	<path fill="#FFFFFF" d="M550.86,161.14C550.19,160.3,550.63,160.83,550.86,161.14L550.86,161.14z M446.25,116.88
		C446.59,116.84,446.89,116.8,446.25,116.88L446.25,116.88z M417.37,124.82C418.6,124.29,417.72,124.67,417.37,124.82L417.37,124.82
		z M344.64,185.67C344.87,185.64,344.98,185.63,344.64,185.67L344.64,185.67z M542.92,415.1c-10.43,2.09-20.91,3.93-31.43,5.53
		c-2.53,0.38-5.07,0.76-7.6,1.11c-0.68,0.1-1.37,0.19-2.05,0.28c-0.16,0.02-0.74,0.1-1.09,0.15c-0.14,0.02-0.27,0.04-0.34,0.04
		c-0.29,0.04-0.59,0.08-0.88,0.12c-0.68,0.09-1.37,0.18-2.05,0.27c-5.28,0.67-10.56,1.29-15.85,1.84
		c-21.08,2.2-42.26,3.42-63.46,3.67c-21.23,0.25-42.46-0.47-63.62-2.16c-0.27-0.02-0.54-0.05-0.81-0.07
		c-0.02-0.17-0.02-0.34-0.06-0.51c-1.92-10.05-4.31-20.01-7.35-29.78c-2.63-8.48-5.7-16.8-8.89-25.09
		c6.37-1.37,12.7-2.95,19.09-4.25c3.14-0.64,6.3-1.23,9.48-1.67c0.37-0.04,1.08-0.13,1.19-0.14c0.93-0.1,1.87-0.19,2.81-0.27
		c1.17-0.09,2.34-0.15,3.51-0.19c3.72,3.21,7.58,6.26,11.62,9.11c8.87,6.25,18.56,11.29,28.8,14.88c11.95,4.19,24.7,5.82,37.31,6.12
		c23.71,0.56,47.43-3.89,69.25-13.15c20.34-8.63,38.81-21.92,52.86-39.03c2.49-3.03,4.85-6.17,7.09-9.41
		c21.5,8.97,45.37,12.32,68.35,8.47c1.22,6.7,2.77,13.31,4.45,19.93c1.09,4.29,2.19,8.58,3.16,12.9c0.49,2.19,0.96,4.39,1.37,6.6
		c0.04,0.23,0.08,0.46,0.12,0.68c-17.52,6.96-35.33,13.17-53.38,18.61C584.27,405.8,563.69,410.94,542.92,415.1z M388.73,356.29
		c0.28,0.17,1.34,1.07,0.34,0.27C388.96,356.47,388.85,356.38,388.73,356.29z M716.67,250.62c-0.09,1.6-0.23,3.2-0.4,4.8
		c-0.02,0.21-0.15,1.24-0.19,1.57c-0.01,0.09-0.03,0.17-0.03,0.22c-0.08,0.49-0.15,0.99-0.24,1.48c-0.53,3.15-1.22,6.28-2.08,9.35
		c-0.83,2.97-1.81,5.9-2.94,8.77c-0.16,0.4-0.47,1.11-0.51,1.22c-0.23,0.52-0.46,1.05-0.7,1.56c-0.67,1.44-1.39,2.86-2.15,4.26
		c-1.52,2.81-3.2,5.52-5.04,8.13c-0.4,0.57-0.83,1.13-1.24,1.7c-0.01,0.01-0.01,0.01-0.02,0.03c-0.2,0.25-0.4,0.51-0.6,0.76
		c-1.05,1.29-2.14,2.55-3.27,3.77c-2.38,2.58-4.9,5.03-7.55,7.33c-0.57,0.5-1.15,0.99-1.74,1.47c-0.16,0.13-0.97,0.77-1.29,1.04
		c-1.25,0.95-2.53,1.88-3.83,2.77c-2.82,1.92-5.74,3.69-8.75,5.29c-1.4,0.75-2.83,1.46-4.27,2.14c-0.67,0.32-1.35,0.62-2.02,0.92
		c-0.23,0.1-0.45,0.2-0.68,0.3c-0.13,0.05-0.37,0.15-0.66,0.27c-6.2,2.48-12.65,4.33-19.21,5.55c-0.84,0.16-1.67,0.3-2.51,0.44
		c-0.17,0.03-0.86,0.13-1.33,0.21c-0.24,0.03-0.58,0.08-0.7,0.09c-0.42,0.05-0.85,0.1-1.27,0.15c-0.96,0.1-1.91,0.2-2.87,0.28
		c-3.31,0.27-6.64,0.4-9.96,0.38c-3.34-0.02-6.69-0.19-10.02-0.51c-0.86-0.08-1.72-0.17-2.59-0.27c-0.34-0.04-0.69-0.08-1.03-0.13
		c-0.04-0.01-0.06-0.01-0.11-0.02c-1.72-0.26-3.44-0.54-5.15-0.87c-6.79-1.3-13.47-3.19-19.94-5.64c-0.36-0.14-0.72-0.28-1.09-0.42
		c5.93-11.14,10.25-23.11,12.4-35.59c0.53-3.07,0.94-6.16,1.27-9.26c0.43-4.1-3.92-8.04-7.86-7.86c-4.63,0.21-7.39,3.46-7.86,7.86
		c-0.07,0.66-0.15,1.32-0.22,1.99c-0.01,0.05-0.01,0.08-0.01,0.12c0,0.01,0,0.01,0,0.02c-0.18,1.23-0.38,2.47-0.6,3.69
		c-0.46,2.53-1,5.05-1.63,7.55c-1.22,4.83-2.77,9.57-4.62,14.2c-0.22,0.54-0.45,1.07-0.66,1.62c0.82-2.2,0.02-0.05-0.19,0.41
		c-0.54,1.22-1.09,2.43-1.67,3.62c-1.08,2.25-2.24,4.47-3.46,6.64c-0.74,1.33-1.52,2.64-2.31,3.94c-0.05,0.07-0.09,0.15-0.14,0.23
		c-1.77,2.89-3.65,5.71-5.64,8.45c-0.39,0.54-0.79,1.08-1.19,1.61c-0.08,0.1-0.16,0.21-0.24,0.31c-0.75,0.94-1.5,1.89-2.27,2.81
		c-1.65,1.99-3.37,3.93-5.14,5.82c-3.43,3.65-7.07,7.11-10.91,10.33c-0.96,0.81-1.93,1.6-2.91,2.38c-0.12,0.09-0.24,0.19-0.36,0.28
		c-0.47,0.36-0.95,0.72-1.43,1.07c-2.25,1.66-4.55,3.25-6.9,4.77c-4.55,2.94-9.28,5.6-14.15,7.98c-1.22,0.6-2.44,1.17-3.68,1.73
		c-0.58,0.26-1.15,0.52-1.73,0.77c-0.23,0.1-0.47,0.2-0.7,0.3c0.03-0.01,0.06-0.02,0.09-0.03c-0.03,0.01-0.06,0.02-0.09,0.03
		c-0.1,0.04-0.2,0.08-0.29,0.13c-0.82,0.35-0.25,0.08,0.2-0.09c-2.5,0.83-4.92,1.98-7.41,2.86c-5.21,1.84-10.52,3.4-15.89,4.67
		c-2.65,0.63-5.31,1.18-7.99,1.67c-1.34,0.24-2.68,0.47-4.03,0.68c-0.63,0.1-1.26,0.19-1.88,0.28c-0.24,0.04-0.49,0.07-0.73,0.1
		c-0.05,0.01-0.09,0.01-0.15,0.02c-5.41,0.65-10.83,1.09-16.28,1.23c-5.78,0.15-11.57,0.01-17.33-0.47
		c-1.55-0.13-3.1-0.29-4.65-0.47c-0.19-0.02-0.87-0.12-0.91-0.12c-0.85-0.13-1.7-0.26-2.55-0.4c-2.93-0.5-5.84-1.12-8.71-1.88
		c-2.41-0.64-4.79-1.37-7.14-2.2c-1.17-0.41-2.33-0.84-3.49-1.3c-0.46-0.18-0.91-0.37-1.37-0.55c-0.29-0.12-0.57-0.25-0.86-0.38
		c-4.52-2.01-8.9-4.35-13.11-6.95c-2.11-1.31-4.19-2.68-6.22-4.11c-1.02-0.72-2.03-1.45-3.03-2.2c-0.33-0.25-0.95-0.96-1.35-1.04
		c-0.14-0.11-0.28-0.22-0.42-0.33c-4-3.19-7.82-6.6-11.47-10.18c-3.68-3.6-7.19-7.38-10.54-11.28c-1.65-1.92-3.27-3.88-4.84-5.86
		c-0.37-0.46-0.73-0.93-1.1-1.39c-0.07-0.09-0.13-0.16-0.18-0.23c-0.81-1.07-1.62-2.13-2.41-3.21c-1.49-2.02-2.95-4.07-4.38-6.14
		c-2.33-3.38-7-5.24-10.75-2.82c-3.36,2.16-5.32,7.13-2.82,10.75c5.88,8.51,12.25,16.68,19.22,24.28
		c-6.3,1.07-12.55,2.51-18.76,3.93c-5.36,1.23-10.72,2.45-16.15,3.33c-0.69,0.11-1.38,0.21-2.07,0.32c-0.12,0.02-0.21,0.03-0.3,0.05
		c-0.1,0.01-0.21,0.02-0.35,0.04c-1.13,0.12-2.26,0.25-3.39,0.34c-2.65,0.21-5.31,0.29-7.96,0.17c-1.08-0.05-2.16-0.14-3.23-0.26
		c0.19-0.01-1.93-0.33-2.35-0.42c-1.25-0.27-2.49-0.6-3.7-0.99c-0.61-0.2-1.21-0.43-1.82-0.64c-0.11-0.04-0.2-0.07-0.27-0.09
		c-0.06-0.03-0.14-0.07-0.24-0.12c-1.18-0.6-2.35-1.17-3.49-1.86c-0.58-0.35-1.14-0.72-1.7-1.1c-0.07-0.05-0.89-0.68-1.06-0.79
		c-2.08-1.74-3.97-3.71-5.67-5.83c-0.11-0.15-0.24-0.32-0.29-0.38c-0.43-0.61-0.87-1.21-1.29-1.83c-0.84-1.24-1.64-2.51-2.4-3.79
		c-1.56-2.62-3-5.32-4.4-8.03c-1.36-2.64-2.66-5.3-3.9-8c-0.62-1.35-1.22-2.7-1.81-4.07c-0.06-0.13-0.09-0.21-0.12-0.27
		c-0.05-0.13-0.11-0.27-0.18-0.46c-0.4-1-0.81-2-1.19-3.01c-2.22-5.77-4.09-11.68-5.47-17.71c-0.63-2.75-1.15-5.52-1.57-8.3
		c-0.04-0.32-0.2-1.49-0.2-1.51c-0.07-0.63-0.14-1.26-0.19-1.89c-0.11-1.26-0.2-2.52-0.26-3.78c-0.23-5.01,0.02-9.98,0.57-14.96
		c-0.01,0.06-0.02,0.11-0.03,0.18c0.01-0.07,0.02-0.14,0.03-0.21c0-0.01,0-0.02,0-0.03c0.02-0.2,0.09-0.59,0.11-0.69
		c0.05-0.31,0.09-0.62,0.14-0.93c0.2-1.23,0.43-2.46,0.68-3.68c0.5-2.45,1.1-4.88,1.79-7.28c0.63-2.21,1.34-4.39,2.13-6.54
		c0.39-1.08,0.8-2.15,1.23-3.22c0.06-0.16,0.19-0.45,0.27-0.67c0.26-0.6,0.52-1.19,0.78-1.78c2-4.39,4.3-8.64,6.87-12.72
		c1.23-1.96,2.52-3.87,3.88-5.75c0.37-0.51,0.74-1.02,1.12-1.53c0.08-0.11,0.42-0.55,0.63-0.81c0.68-0.85,1.36-1.71,2.06-2.54
		c3.24-3.87,6.75-7.51,10.5-10.9c0.93-0.85,1.88-1.68,2.85-2.49c0.48-0.41,0.97-0.81,1.45-1.21c0.16-0.13,1-0.79,1.31-1.04
		c2.02-1.54,4.1-3.01,6.23-4.4c4.55-2.96,9.32-5.58,14.28-7.78c0.24-0.1,0.47-0.21,0.71-0.31c-0.9,0.4,1.15-0.46,1.45-0.58
		c1.26-0.49,2.53-0.96,3.81-1.39c2.56-0.88,5.16-1.64,7.79-2.29c2.64-0.65,5.3-1.18,7.98-1.58c0.11-0.02,0.29-0.04,0.46-0.06
		c0.71-0.08,1.42-0.17,2.13-0.24c1.47-0.14,2.94-0.24,4.41-0.31c2.62-0.13,5.58-1.37,6.79-3.89c1.91-3.98,4.03-7.85,6.37-11.59
		c1.05-1.68,2.15-3.33,3.29-4.95c0.63-0.9,1.28-1.79,1.94-2.68c0.26-0.35,0.53-0.7,0.79-1.06c-1.03,1.37,0.16-0.2,0.4-0.49
		c5.36-6.72,11.44-12.86,18.08-18.33c0.81-0.67,1.62-1.32,2.45-1.96c0.04-0.03,0.07-0.05,0.12-0.09c0.44-0.33,0.88-0.66,1.33-0.99
		c1.78-1.31,3.59-2.57,5.43-3.78c3.6-2.37,7.31-4.55,11.13-6.54c1.76-0.92,3.54-1.8,5.34-2.63c1-0.46,2-0.91,3.01-1.35
		c0.7-0.29,1.4-0.57,2.11-0.85c4-1.57,8.08-2.93,12.23-4.07c4.03-1.11,8.13-2.01,12.26-2.69c0.65-0.11,1.31-0.2,1.96-0.3
		c0.04-0.01,0.09-0.01,0.15-0.02c1-0.12,2-0.24,3-0.34c2.19-0.22,4.39-0.38,6.6-0.47c4.2-0.17,8.42-0.11,12.62,0.19
		c2.1,0.15,4.19,0.38,6.28,0.62c0.01,0,0.01,0,0.01,0c0.06,0.01,0.12,0.02,0.2,0.03c0.44,0.07,0.88,0.13,1.31,0.2
		c1.31,0.21,2.62,0.44,3.92,0.69c4.13,0.8,8.22,1.81,12.24,3.03c2.01,0.61,4.01,1.27,5.99,1.99c0.94,0.34,1.87,0.69,2.8,1.05
		c0.52,0.2,1.03,0.4,1.55,0.61c0.14,0.06,1.06,0.44,1.35,0.56c0.35,0.15,0.76,0.33,0.75,0.33c0.41,0.18,0.81,0.36,1.21,0.55
		c1.01,0.46,2.01,0.93,3.01,1.42c1.99,0.97,3.96,2,5.9,3.07c3.78,2.1,7.46,4.39,11.01,6.86c1,0.7,1.99,1.41,2.97,2.13
		c0.36,0.26,0.71,0.53,1.07,0.8c0.11,0.08,0.19,0.14,0.27,0.2c0.06,0.05,0.14,0.11,0.25,0.2c1.9,1.53,3.78,3.08,5.61,4.7
		c3.64,3.24,7.09,6.69,10.33,10.33c1.59,1.8,3.11,3.65,4.61,5.52c0.02,0.03,0.04,0.05,0.06,0.07c0.4,0.53,0.8,1.06,1.19,1.6
		c0.78,1.07,1.55,2.16,2.29,3.26c2.74,4.04,5.21,8.24,7.42,12.59c1.1,2.16,3.43,3.44,5.74,3.75c2.63,0.35,4.59-0.52,6.6-2.16
		c0.21-0.17,1.46-1.15,1.4-1.12c0.42-0.31,0.84-0.63,1.26-0.94c1.45-1.05,2.93-2.06,4.43-3.02c2.74-1.75,5.58-3.36,8.49-4.81
		c1.41-0.71,2.84-1.36,4.28-2.01c0.1-0.04,0.15-0.07,0.22-0.1c0.27-0.11,0.54-0.22,0.8-0.33c0.88-0.35,1.76-0.69,2.65-1.02
		c3.06-1.13,6.17-2.11,9.33-2.94c3.26-0.86,6.56-1.55,9.89-2.09c0.18-0.03,0.9-0.14,1.36-0.21c0.23-0.03,0.51-0.07,0.62-0.08
		c0.42-0.05,0.84-0.1,1.26-0.14c1.68-0.18,3.36-0.32,5.04-0.43c6.46-0.39,12.95-0.16,19.37,0.62c0.38,0.06,1.2,0.17,1.51,0.22
		c0.73,0.12,1.45,0.24,2.17,0.37c1.75,0.32,3.5,0.69,5.23,1.1c3.16,0.75,6.27,1.65,9.34,2.71c1.48,0.51,2.95,1.06,4.4,1.64
		c0.26,0.1,0.52,0.21,0.78,0.32c0.07,0.03,0.13,0.06,0.23,0.1c0.76,0.34,1.52,0.68,2.28,1.04c3.02,1.43,5.96,3.02,8.8,4.77
		c1.33,0.82,2.64,1.68,3.93,2.58c0.6,0.42,1.2,0.84,1.79,1.28c0.34,0.25,0.67,0.51,1.01,0.75c-0.33-0.24-0.51-0.37-0.58-0.42
		c0.13,0.1,0.57,0.42,0.73,0.54c2.59,2.06,5.05,4.28,7.37,6.64c2.05,2.08,3.95,4.29,5.77,6.56c0.22,0.29,0.82,1.08,0.96,1.27
		c0.41,0.57,0.82,1.14,1.21,1.72c0.97,1.4,1.89,2.83,2.77,4.29c1.61,2.66,3.08,5.4,4.4,8.21c0.34,0.73,0.68,1.46,1,2.19
		c0.01,0.02,0.02,0.05,0.03,0.07c0.03,0.07,0.08,0.17,0.12,0.28c0.07,0.16,0.14,0.32,0.21,0.48c-0.06-0.14-0.1-0.23-0.15-0.33
		c0.02,0.05,0.04,0.09,0.05,0.13c0.59,1.49,1.17,2.99,1.7,4.51c1.06,3.04,1.96,6.13,2.71,9.27c0.35,1.47,0.67,2.95,0.95,4.43
		c0.14,0.73,1.27,4.52,0.84,5.07c0,0-0.18-1.54-0.09-0.59c0.04,0.4,0.1,0.8,0.14,1.2c0.09,0.8,0.17,1.6,0.24,2.41
		c0.14,1.6,0.24,3.21,0.3,4.82C716.88,244.39,716.85,247.51,716.67,250.62z"/>
	<path fill="#FFFFFF" d="M263.93,267.19c-0.04,0.24-0.07,0.48-0.11,0.72c0,0.01,0,0.02,0,0.03
		C263.93,267.26,263.95,267.1,263.93,267.19z"/>
	<path fill="#FFFFFF" d="M513.88,366.8C513.88,366.8,513.88,366.8,513.88,366.8c-0.03,0.01-0.06,0.02-0.09,0.03
		C513.82,366.82,513.85,366.81,513.88,366.8z"/>
</g>
<path fill="#F2B6CD" d="M381.28,734.81c-21.22-6.25-41.77-18.49-54.73-36.77c-3.18-4.49-7.05-10.31-10.81-17.36
	c-30.89,8.77-52.8,30.71-52.8,56.41c0,33.42,37.04,60.51,82.74,60.51c43.06,0,78.42-24.06,82.36-54.8
	c-1.25-0.16-2.49-0.31-3.74-0.49C409.69,741.41,395.14,738.89,381.28,734.81z"/>
<path fill="#F2B6CD" d="M811.56,727.47c-1.33-26.21-25.28-47.35-57.59-54.1c4.49,19.73,7.52,33.1,7.77,34.27
	c1.95,9.18-4.15,16.92-12.64,19.47c-15.96,4.78-32.48,9.39-49.2,12.21c-14.17,3.6-28.8,5.66-43.24,6.01
	c-2.94,0.07-5.91,0.03-8.87-0.11c7.64,28.6,42.96,48.99,84.22,46.89C777.64,789.77,813.26,760.84,811.56,727.47z"/>
<g>
	<path fill="#FFFFFF" d="M1258.76,269.77c2.5-25.07-36.45-29.07-38.95-3.96c-0.93,9.32-1.86,18.64-2.79,27.96
		c-26.3-11.25-159.81-31.43-197.87,57.63c-32.6,76.29,0.08,130.8,16.85,154.44c15.46,21.8,39.98,36.4,65.29,43.86
		c16.53,4.87,33.89,7.87,51.3,8.94c20.02,2.89,40.46,3.69,60.33,4.07c10.57,0.2,20.32-6.36,21.46-17.5
		C1234.93,539.66,1255.23,305.14,1258.76,269.77z M1116.51,382.57c16.86-7.39,37.94-4.14,55.22,0.1c0.25,0.06,0.48,0.12,0.73,0.18
		c25.01,19.58,11.06,66.87-16.01,79.14c-29.85,13.53-64-7.83-64.41-41.06C1091.84,404.65,1101.62,389.09,1116.51,382.57z"/>
	<path fill="#FFFFFF" d="M1215.78,622.32c-2.85-25.03-41.77-20.72-38.91,4.35c1.06,9.31,2.12,18.61,3.18,27.92
		c-28.08-5.44-162.85,3.03-181.23,98.12c-15.75,81.46,27.7,127.84,49.08,147.4c19.72,18.04,46.76,27.14,73.08,29.08
		c17.18,1.27,34.79,0.53,52.03-2.09c20.18-1.4,40.33-4.94,59.83-8.76c10.38-2.03,18.52-10.5,17.28-21.63
		C1249.48,891.15,1219.79,657.64,1215.78,622.32z M1100.55,762.61c14.92-10.79,36.21-12.06,54-11.57c0.26,0.01,0.5,0.02,0.75,0.02
		c28.58,13.85,24.93,63.03,1.07,80.73c-26.32,19.53-64.21,5.87-71.63-26.53C1081.11,789.41,1087.38,772.13,1100.55,762.61z"/>
	<path fill="#FFFFFF" d="M1318.21,316.95c4.71-12.49,16.22-18.73,34.53-18.73c19.88,0,32.57,7.01,38.06,21
		c4.18,10.98,6.28,48.62,6.28,112.94c0,56.75-1.71,93.08-5.1,108.97c-3.67,12.49-16.36,18.73-38.07,18.73
		c-19.89,0-31.53-5.68-34.93-17.03c-5.76-18.91-8.63-60.16-8.63-123.72C1310.36,361.22,1312.97,327.17,1318.21,316.95z"/>
	<path fill="#FFFFFF" d="M1652.21,363.83c-1.05,7.68-5.75,14.45-14.07,20.29c-8.33,5.85-16.25,8.25-23.77,7.22
		c-2.86-0.39-5.48-1.45-7.88-3.18c-12.73-9.29-24.27-14.65-34.64-16.07c-6.22-0.85-11.6-0.19-16.11,1.98
		c-4.86,2.69-7.64,6.64-8.36,11.85l-0.23,1.65c-0.76,11.36,14.97,23.71,47.21,37.07c17.72,7.46,30,16.13,36.84,26.01
		c7.94,11.43,10.61,26.6,8.02,45.53c-4.44,32.37-22.59,52.1-54.46,59.19c-16.9,3.83-36.88,4.17-59.95,1
		c-19.44-2.66-37.34-7.91-53.7-15.74c-20.28-10.04-34.29-22.44-42.04-37.2c1.99-14.54,4.14-24.44,6.45-29.72
		c6.17-14.24,15.74-20.48,28.7-18.7c5.7,0.78,14.56,5.49,26.58,14.12c12.02,8.64,21.14,13.38,27.36,14.23
		c5.96,0.82,11.7-0.63,17.23-4.35c0.78-1.84,1.26-3.45,1.45-4.83c1.16-8.5-10.32-16.22-34.45-23.16
		c-16.77-4.81-29.62-14.12-38.56-27.92c-8.53-12.91-11.76-26.9-9.7-41.99c3.68-26.88,18.84-47.86,45.46-62.93
		c24.03-13.48,49.26-18.4,75.7-14.78c21.77,2.98,38.37,9.03,49.8,18.14c7.14,5.73,15.67,16.68,25.6,32.85
		C1652.17,357.4,1652.67,360.54,1652.21,363.83z"/>
	<path fill="#FFFFFF" d="M1823.22,300.28c7.59,5.15,12.71,12.67,15.33,22.57c2.27,8.57,1.86,15.69-1.23,21.38
		c-26.02,17.22-42.07,28.65-48.15,34.27c-18.37,17.49-25.14,35.32-20.3,53.52c2.84,10.71,10.91,21.74,24.22,33.1
		c12.79,4.34,24.24,5.16,34.36,2.48c11.12-2.95,22.13-10.45,33-22.51c3.98-3.35,8.25-5.63,12.8-6.84
		c7.59-2.01,14.37-0.95,20.34,3.19c5.07,3.81,8.5,9.06,10.27,15.75l0.85,3.21c2.86,15.86,2.48,28.21-1.13,37.04
		c-3.61,8.84-12.68,19.05-27.19,30.64c-9.85,7.77-20.59,13.2-32.22,16.29c-8.6,2.28-21.52,3.57-38.77,3.85
		c-24.02-2.79-37.34-4.54-39.98-5.28c-9.05-2.47-19.42-7.88-31.11-16.23c-20.47-14.9-35.07-38.81-43.81-71.73
		c-2.84-10.7-4.3-20.77-4.37-30.21c6.64-36.14,19.63-65.22,38.95-87.26c9.69-13.46,22.45-24.01,38.29-31.65
		c4.08-1.94,15.18-6.03,33.28-12.27C1806.78,292.9,1815.63,295.14,1823.22,300.28z"/>
	<path fill="#FFFFFF" d="M2268.51,323.26c-1.57,15.23-3.8,32.26-6.67,51.08c-3.4,21.59-5.1,37.79-5.1,48.59
		c0,21.88,7.06,33.09,21.19,33.64h0.79c13.6,0,20.4-11.9,20.4-35.72c0-11.9-1.7-28.51-5.1-49.84c-3.92-24.92-6.15-40.42-6.67-46.51
		v-2.08c0-8.03,4.32-14.26,12.95-18.69c7.32-3.6,15.83-5.4,25.51-5.4c10.72,0,20.41,2.22,29.04,6.64
		c10.2,5.26,16.48,12.74,18.84,22.43c4.18,17.72,6.28,38.21,6.28,61.46c0,24.92-3.01,52.19-9.03,81.81
		c-8.11,39.32-18.97,62.71-32.57,70.19c-6.54,10.8-27.21,16.2-62,16.2c-36.89,0-57.95-5.81-63.18-17.44
		c-15.7-11.9-27.34-33.36-34.93-64.37c-5.5-22.98-8.24-48.17-8.24-75.58c0-23.81,2.61-47.2,7.85-70.19
		c2.36-10.8,8.37-18.96,18.05-24.5c8.63-4.98,19.1-7.48,31.4-7.48c8.89,0,17.27,1.39,25.12,4.15c10.99,4.15,16.48,9.97,16.48,17.44
		C2268.9,319.93,2268.76,321.32,2268.51,323.26z"/>
	<path fill="#FFFFFF" d="M2500.04,540.46v0.42c0,10.53-11.52,15.78-34.53,15.78c-23.55,0-36.1-4.99-37.67-14.95
		c-5.76-35.99-8.63-79.32-8.63-129.99c0-51.5,3.01-83.89,9.02-97.18c3.66-11.9,12.95-17.86,27.86-17.86
		c6.54,0,12.42,1.39,17.66,4.15c6.53,3.32,10.07,8.03,10.59,14.12c0,3.6,0.26,5.81,0.79,6.64c0.78,1.66,2.75,2.63,5.89,2.91h1.96
		c4.71,0,8.89-1.8,12.56-5.4c4.97-5.26,10.33-9.14,16.09-11.63c9.94-4.43,20.02-6.65,30.22-6.65c19.1,0,35.71,6.65,49.84,19.93
		c13.6,13.29,20.4,29.63,20.4,49.01v1.24c2.09,19.38,3.14,41.67,3.14,66.86c0,49.56-3.14,85.55-9.42,107.98
		c-3.93,7.76-15.44,11.63-34.53,11.63c-17.27,0-26.95-4.57-29.04-13.71c-2.36-2.76-3.53-11.76-3.53-26.99
		c0-6.37,0.19-15.99,0.59-28.87s0.59-22.49,0.59-28.86c0-41.8-5.76-62.71-17.27-62.71h-1.96c-2.62,0.56-9.42,1.94-20.41,4.15
		c-6.54,1.39-10.46,7.2-11.77,17.44c-0.53,2.77-0.79,10.66-0.79,23.67C2497.68,436.91,2498.47,469.86,2500.04,540.46z"/>
	<path fill="#FFFFFF" d="M2655.89,365.4c-3.6-20.17-0.87-32.47,8.17-36.89c2.8-2.19,6.64-3.72,11.54-4.59
		c3.86-0.69,9.57-1.07,17.13-1.16c7.56-0.08,13.27-0.47,17.13-1.16c4.12-0.73,6.93-2.08,8.45-4.04c2.22-5.46,3.13-9.27,2.74-11.46
		c-4.31-10.76-7.12-19.82-8.43-27.18l-0.66-3.68c-0.88-9.4,9.36-16.01,30.75-19.83c7.47-1.33,14.85-1.66,22.15-1
		c10.83,1.17,16.89,4.58,18.17,10.26l0.44,2.45c0.83,4.64,1.62,12.09,2.39,22.35c0.68,8.32,0.77,12.52,0.25,12.61l-0.51-2.86
		c0.92,5.18,6.15,6.92,15.68,5.22c3.61-0.64,7.55-1.62,11.83-2.95c6.76-2.33,12.58-3.93,17.48-4.81c5.92-1.06,10.58-1.04,13.96,0.04
		c3.9,0.99,7.62,6.23,11.18,15.72c2.81,6.82,4.77,13.35,5.89,19.62c2.53,14.18,1.27,23.54-3.76,28.09c-2.4,2.96-7.33,5.1-14.8,6.44
		c-5.16,0.92-11.44,1.48-18.84,1.67c-6.38,0.01-11.63,0.39-15.74,1.12c-6.96,1.24-10.94,3.5-11.95,6.77
		c-3.67,6.28-3.14,22.64,1.57,49.08c4.67,26.17,10.59,40.02,17.77,41.55c3.03,0.59,5.57,0.7,7.63,0.33c2.83-0.5,7-3.57,12.51-9.19
		c5.51-5.62,11.09-8.94,16.76-9.95c2.83-0.5,5.99-0.65,9.49-0.43c14.72,3.57,23.56,13.66,26.53,30.28
		c3.01,16.9-3.34,31.96-19.05,45.16c-17.12,14.3-36.1,23.31-56.97,27.03c-25.76,4.59-45.96-2.91-60.62-22.52
		c-5.58-7.44-9.85-19.47-12.82-36.1c-1.8-10.08-3.27-25.42-4.42-46.04c-1.15-20.6-2.62-35.95-4.42-46.04
		c-1.26-7.08-3.03-10.99-5.28-11.71c-5.12-1.9-10.14-2.41-15.02-1.54c-3.09,0.55-7.64,2.28-13.63,5.17c-6,2.9-10.54,4.62-13.63,5.17
		c-2.32,0.41-4.58,0.39-6.79-0.06C2666.24,395.89,2659.49,385.57,2655.89,365.4z"/>
	<g>
		<path fill="#FFFFFF" d="M1311.37,666.11c16.4-17.07,43.69-25.61,81.86-25.61c37.91,0,64.52,9.68,79.85,29.02
			c11.02,6.83,18.81,28.59,23.39,65.29c2.96,23.04,4.43,47.94,4.43,74.68c0,44.38-3.5,74.97-10.49,91.75
			c-2.42,13.66-12.64,20.49-30.65,20.49c-14.25,0-22.32-4.41-24.2-13.23c-12.9,5.97-27.16,8.96-42.74,8.96
			c-33.07,0-59.15-9.1-78.23-27.31c-13.45-18.49-20.16-39.97-20.16-64.44c0-20.48,5.78-36.42,17.34-47.8
			c15.59-15.36,33.47-23.04,53.63-23.04c12.63,0,30.37,4.41,53.23,13.23c10.22,0,15.32-6.11,15.32-18.35
			c0-7.96-2.42-15.43-7.26-22.4c-4.84-6.97-10.76-11.74-17.74-14.3c-8.87-3.13-17.75-4.69-26.61-4.69c-8.61,0-18.82,2.85-30.65,8.54
			c-11.84,5.7-19.5,8.54-22.98,8.54c-5.38,0-11.16-2.13-17.34-6.4c-6.72-9.96-10.08-19.48-10.08-28.59
			C1301.29,681.05,1304.65,672.94,1311.37,666.11z M1358.96,833.4c0,6.83,1.88,11.52,5.64,14.08c2.15,1.43,6.86,2.56,14.12,3.42
			c2.15,0.28,4.16,0.43,6.05,0.43c5.38,0,10.22-0.85,14.52-2.56c7.52-2.84,11.29-8.11,11.29-15.79c0-12.52-9.55-20.2-28.63-23.04
			c-1.35-0.28-2.69-0.43-4.03-0.43c-5.11,0-9.27,1.86-12.5,5.55C1361.11,819.61,1358.96,825.72,1358.96,833.4z"/>
		<path fill="#FFFFFF" d="M1748.91,708.36c0,7.97-3.83,15.51-11.49,22.62c-7.66,7.12-15.39,10.67-23.19,10.67
			c-2.96,0-5.78-0.71-8.47-2.13c-14.25-7.68-26.75-11.52-37.5-11.52c-6.45,0-11.83,1.43-16.13,4.27c-4.58,3.42-6.86,7.83-6.86,13.23
			v1.71c0.81,11.67,18.55,22.05,53.23,31.15c19.08,5.12,32.8,12.24,41.13,21.34c9.68,10.53,14.52,25.61,14.52,45.24
			c0,33.58-15.72,56.2-47.18,67.86c-16.67,6.26-36.97,9.39-60.89,9.39c-20.16,0-39.12-2.84-56.86-8.54
			c-22.05-7.39-38.04-18.06-47.99-32.01c0-15.08,0.81-25.46,2.42-31.15c4.29-15.36,13.17-23.04,26.61-23.04
			c5.91,0,15.59,3.56,29.03,10.67c13.44,7.12,23.39,10.67,29.84,10.67c6.18,0,11.82-2.27,16.94-6.83c0.53-1.99,0.8-3.69,0.8-5.12
			c0-8.82-12.77-15.08-38.31-18.78c-17.74-2.56-32.13-10.24-43.15-23.04c-10.49-11.95-15.73-25.75-15.73-41.39
			c0-27.88,12.5-51.35,37.5-70.42c22.58-17.07,47.58-25.61,75.01-25.61c22.58,0,40.33,3.84,53.23,11.52
			c8.07,4.84,18.28,14.8,30.65,29.88C1747.97,701.82,1748.91,704.95,1748.91,708.36z"/>
		<path fill="#FFFFFF" d="M1798.56,630.69c1.9-12.52,12.09-18.78,30.57-18.78c5.71,0,12.77,1,21.2,2.99
			c10.86,2.56,16.3,5.84,16.3,9.82c2.71,3.41,4.08,9.96,4.08,19.63c0,9.68-1.55,24.26-4.64,43.75c-3.09,19.49-4.64,34.07-4.64,43.74
			c0,13.38,2.28,20.06,6.86,20.06c2.68,0,9.88-1.77,21.58-5.33c11.69-3.56,21.17-5.33,28.43-5.33c12.37,0,25.94,1.85,40.73,5.55
			c24.46,9.67,36.7,42.4,36.7,98.15c0,35.28-2.82,58.19-8.47,68.71c-2.69,6.55-11.69,9.82-27.02,9.82
			c-13.71,0-22.92-2.41-27.62-7.26c-4.71-4.84-7.06-14.22-7.06-28.16c0-4.55,0.33-11.45,1.01-20.7c0.67-9.24,1.01-16.14,1.01-20.7
			c0-21.05-6.99-31.58-20.97-31.58c-6.99,0-16.13,2.42-27.42,7.26c-5.65,1.43-8.47,8.96-8.47,22.62c0,5.12,0.4,12.59,1.21,22.4
			c0.8,9.82,1.21,17.29,1.21,22.41c0,9.39-1.08,16.08-3.23,20.06c-1.88,9.11-12.5,13.66-31.86,13.66
			c-20.43,0-31.86-4.55-34.28-13.66c-6.18-88.19-9.27-155.19-9.27-201C1794.48,675.22,1795.84,649.19,1798.56,630.69z"/>
	</g>
	<path fill="#FFFFFF" d="M2097.7,321.54c19.98,20.73,33.27,54.21,39.87,100.42l-0.04,10.76c-0.11,29.55-2.23,50.92-6.35,64.09
		c-5.49,17.19-17.76,33.07-36.78,47.63c-25.24,7.65-47.21,11.44-65.92,11.36c-20.33-0.08-39.02-4.31-56.07-12.7
		c-14.85-15.83-25.29-30.93-31.34-45.31c-6.04-14.37-9.02-32.45-8.94-54.25c0.04-10.9,0.91-23.38,2.59-37.43
		c8.52-32.67,15.66-55.45,21.41-68.34c11.48-25.49,26.6-41.92,45.33-49.31C2044.28,288.63,2076.36,299.66,2097.7,321.54z
		 M2007.08,376.68l-10.5,25.23c-0.58,1.4,0.15,3.01,1.6,3.48l27.52,9.02c2.3,0.75,4.3-1.76,3.04-3.83l-4.3-7.08
		c-1-1.65,0.07-3.78,1.99-3.95c8.46-0.76,27.72-1.9,36.72,2.39c1.59,0.76,3.46-0.26,3.7-2.01L2069,384c0.2-1.45-0.83-2.77-2.29-2.94
		c-8.12-0.94-33.09-3.01-47.81,4.76c-1.35,0.71-3.01,0.13-3.62-1.27l-3.4-7.9C2010.98,374.54,2007.97,374.55,2007.08,376.68z
		 M2013.07,476.51l26.16-7.92c1.46-0.44,2.23-2.03,1.68-3.45l-10.52-26.98c-0.88-2.26-4.1-2.2-4.89,0.09l-2.73,7.82
		c-0.64,1.82-2.96,2.35-4.32,0.98c-5.96-6.05-19.08-20.2-21.49-29.88c-0.43-1.71-2.4-2.51-3.9-1.58l-13.67,8.46
		c-1.24,0.77-1.61,2.41-0.82,3.64c4.44,6.87,18.7,27.46,34.05,33.89c1.41,0.59,2.02,2.24,1.32,3.6l-3.94,7.64
		C2008.94,474.87,2010.86,477.18,2013.07,476.51z M2098.69,420.48l-17.67-20.85c-0.98-1.16-2.75-1.24-3.83-0.17l-20.58,20.38
		c-1.72,1.71-0.39,4.63,2.03,4.46l8.26-0.6c1.93-0.14,3.33,1.78,2.61,3.57c-3.18,7.88-10.95,25.53-18.87,31.59
		c-1.4,1.07-1.35,3.2,0.1,4.21l13.2,9.18c1.2,0.84,2.85,0.52,3.66-0.69c4.54-6.8,17.77-28.08,17.56-44.72
		c-0.02-1.52,1.26-2.74,2.78-2.64l8.58,0.58C2098.82,424.92,2100.18,422.24,2098.69,420.48z"/>
</g>
</svg>
