<?xml version="1.0" standalone="no"?>
<!DOCTYPE svg PUBLIC "-//W3C//DTD SVG 20010904//EN"
 "http://www.w3.org/TR/2001/REC-SVG-20010904/DTD/svg10.dtd">
<svg version="1.0" xmlns="http://www.w3.org/2000/svg"
 width="1920.000000pt" height="1920.000000pt" viewBox="0 0 1920.000000 1920.000000"
 preserveAspectRatio="xMidYMid meet">
<metadata>
Created by potrace 1.16, written by Peter Selinger 2001-2019
</metadata>
<g transform="translate(0.000000,1920.000000) scale(0.100000,-0.100000)"
fill="#000000" stroke="none">
<path d="M9561 15439 c-83 -14 -226 -65 -299 -106 -464 -259 -620 -845 -348
-1308 49 -82 177 -221 261 -280 307 -218 714 -231 1035 -33 192 118 337 302
403 514 69 218 58 440 -33 658 -43 103 -99 187 -184 275 -124 128 -275 218
-441 262 -92 24 -305 34 -394 18z m308 -315 c103 -26 214 -88 290 -164 76 -76
121 -148 159 -252 23 -64 26 -88 26 -198 0 -109 -4 -135 -27 -198 -88 -250
-303 -414 -562 -429 -304 -18 -582 188 -651 483 -21 92 -15 253 15 345 61 192
248 365 446 413 82 20 224 20 304 0z"/>
<path d="M12147 14139 c-949 -350 -1072 -393 -1610 -559 -931 -289 -877 -270
-1015 -350 -165 -94 -346 -209 -651 -412 -458 -306 -581 -370 -1251 -643 -576
-236 -707 -296 -774 -359 l-45 -41 -10 42 c-14 53 -54 101 -106 124 -37 17
-79 19 -632 19 l-593 0 0 -670 0 -670 449 -2 449 -3 -537 -1308 -536 -1309
-90 4 c-455 21 -940 -135 -1300 -417 -94 -74 -244 -225 -304 -308 -194 -265
-238 -555 -116 -763 43 -73 144 -148 227 -168 16 -3 28 -10 28 -15 0 -5 -15
-35 -33 -68 -49 -86 -113 -241 -141 -340 -54 -191 -61 -244 -61 -478 1 -190 4
-234 23 -325 50 -231 133 -430 259 -620 95 -143 302 -354 438 -446 234 -159
478 -254 743 -289 817 -108 1580 369 1842 1153 38 114 80 317 80 388 l0 34
1133 -1 c622 -1 1645 -5 2272 -8 l1139 -6 13 -99 c79 -631 530 -1180 1138
-1384 367 -124 729 -124 1100 -1 605 201 1059 754 1139 1387 l12 97 359 5 360
5 54 28 c101 53 170 147 191 259 11 55 -1 397 -20 588 -127 1288 -636 2266
-1455 2798 -263 171 -482 254 -737 282 -58 6 -409 10 -875 10 l-778 0 54 30
c222 122 386 358 448 645 l9 39 699 258 c385 142 860 316 1055 388 195 72 371
141 391 154 48 32 74 87 74 156 -1 48 -83 278 -624 1745 -342 930 -633 1706
-646 1726 -31 47 -96 79 -161 78 -39 0 -262 -79 -1077 -380z m1594 -1530 c317
-860 574 -1567 570 -1571 -6 -7 -1769 -658 -1780 -658 -6 0 -91 229 -91 245 0
6 51 36 113 68 223 114 280 166 280 251 0 87 -61 150 -147 151 -44 0 -63 -7
-139 -53 -125 -74 -208 -115 -217 -105 -7 8 -253 668 -724 1943 -128 349 -231
638 -227 642 10 11 1764 657 1776 654 5 -1 269 -707 586 -1567z m-2578 579
c48 -128 192 -519 321 -868 128 -349 305 -827 391 -1063 87 -235 156 -430 152
-433 -3 -3 -56 -15 -119 -26 -151 -28 -455 -30 -603 -5 -374 65 -710 213
-1006 444 l-96 75 -51 126 c-49 121 -90 227 -145 374 l-25 66 103 63 c145 87
202 138 213 192 11 58 -3 109 -44 148 -29 28 -43 33 -91 37 -57 4 -60 3 -149
-56 -138 -92 -320 -194 -519 -292 -767 -376 -1540 -620 -1971 -620 -187 0
-256 22 -371 118 -46 39 -93 100 -93 120 0 7 30 27 68 43 138 63 374 163 602
256 667 270 839 358 1293 662 494 329 712 459 832 496 44 14 332 103 640 199
308 96 565 175 571 175 6 1 50 -104 97 -231z m-1384 -1643 c27 -71 119 -299
203 -505 183 -444 262 -654 255 -673 -15 -38 -866 -378 -1525 -607 -122 -43
-248 -93 -279 -111 -81 -48 -202 -171 -251 -254 -69 -118 -86 -182 -86 -320
l-1 -120 143 -475 c202 -670 420 -1402 424 -1424 3 -16 -24 -27 -209 -81 -117
-34 -238 -75 -269 -90 -138 -67 -262 -255 -264 -400 l-1 -30 -30 35 c-87 102
-860 1131 -891 1188 -53 93 -95 207 -120 321 -29 129 -31 392 -5 526 26 131
129 524 382 1450 123 451 238 874 255 941 l32 120 127 12 c490 45 1164 263
1911 620 l125 59 12 -26 c7 -14 35 -84 62 -156z m-3289 -255 l0 -360 -360 0
-360 0 0 360 0 360 360 0 360 0 0 -360z m506 -91 c53 -42 163 -106 197 -114
15 -4 30 -11 33 -16 3 -5 -107 -422 -245 -927 -397 -1456 -413 -1521 -433
-1740 -24 -278 24 -554 142 -797 65 -136 77 -153 630 -880 341 -449 498 -647
528 -669 93 -66 103 -68 487 -78 193 -5 555 -10 805 -11 442 -2 458 -1 562 21
433 93 793 327 1043 678 236 330 338 728 307 1191 -27 390 -137 701 -348 980
-67 88 -78 125 -45 143 13 7 478 10 1433 10 1552 0 1517 1 1701 -60 223 -75
527 -279 749 -503 571 -576 899 -1477 943 -2592 6 -131 4 -163 -8 -179 -14
-18 -83 -19 -3208 -17 -1757 0 -3687 4 -4289 8 l-1096 6 -657 1115 -657 1115
269 656 c148 361 402 979 564 1373 259 633 299 723 335 762 44 47 62 96 62
164 0 30 21 95 71 217 40 96 75 175 79 175 4 0 25 -14 46 -31z m3574 -491
c249 -121 488 -193 760 -229 206 -27 536 -11 733 35 31 7 59 10 62 7 2 -4 9
-63 16 -133 28 -288 -39 -530 -189 -690 -75 -79 -148 -119 -260 -143 -660
-142 -958 -221 -1847 -487 -624 -186 -638 -192 -699 -283 -50 -74 -59 -113
-53 -229 8 -162 53 -342 237 -946 103 -338 170 -585 196 -716 32 -168 -40
-320 -187 -394 -23 -12 -225 -65 -448 -117 -372 -87 -413 -94 -487 -91 -91 5
-123 19 -154 71 -23 38 -26 113 -6 160 25 61 72 90 212 131 279 81 381 116
421 145 51 37 90 101 105 173 13 64 41 -36 -332 1213 -235 784 -251 844 -248
905 2 43 12 82 28 115 26 55 106 145 155 175 17 10 145 59 285 108 742 260
1471 557 1595 649 22 16 53 53 69 82 26 49 28 59 23 135 -4 69 -14 107 -70
254 -35 95 -62 171 -58 169 3 -1 67 -33 141 -69z m-226 -1873 c11 -36 45 -92
101 -166 223 -298 317 -620 302 -1039 -13 -379 -135 -681 -379 -936 -209 -218
-449 -348 -756 -409 -32 -7 -32 -5 35 62 176 177 230 392 168 668 -40 181 -85
340 -206 738 -132 433 -198 684 -206 787 l-5 75 118 33 c66 19 270 80 454 137
184 56 340 103 346 104 6 0 18 -24 28 -54z m-5028 -1157 c17 -9 106 -152 274
-437 138 -233 249 -426 247 -427 -2 -2 -39 3 -83 12 -332 63 -939 11 -1573
-137 -194 -46 -357 -61 -410 -39 -47 19 -68 95 -52 187 25 135 153 325 308
457 117 99 207 157 358 231 187 91 359 142 561 165 103 12 339 4 370 -12z
m369 -1154 c166 -29 325 -96 416 -177 24 -21 112 -159 255 -402 l219 -370 0
-135 c-3 -685 -498 -1258 -1180 -1367 -121 -19 -382 -13 -492 12 -454 101
-821 405 -1000 828 -71 168 -104 339 -104 533 0 226 49 434 149 631 50 100
165 269 191 282 51 27 553 123 817 156 295 37 550 40 729 9z m8827 -1199 c17
-17 -39 -261 -89 -387 -183 -458 -596 -787 -1088 -865 -122 -19 -381 -13 -495
12 -281 62 -537 206 -733 415 -196 208 -328 485 -365 763 l-9 67 1387 0 c763
0 1389 -2 1392 -5z"/>
<path d="M13270 7292 c-52 -28 -80 -75 -80 -135 0 -64 28 -109 84 -136 41 -21
56 -21 617 -21 l575 0 44 23 c104 52 112 190 17 261 -28 21 -36 21 -625 24
-567 2 -599 1 -632 -16z"/>
<path d="M13295 6570 c-17 -5 -46 -25 -65 -45 -29 -30 -34 -43 -38 -92 -3 -48
0 -64 20 -93 49 -72 24 -70 684 -70 l591 0 33 23 c97 65 97 200 0 260 -35 22
-38 22 -615 24 -319 1 -594 -3 -610 -7z"/>
</g>
</svg>
