<?xml version="1.0" standalone="no"?>
<!DOCTYPE svg PUBLIC "-//W3C//DTD SVG 20010904//EN"
 "http://www.w3.org/TR/2001/REC-SVG-20010904/DTD/svg10.dtd">
<svg version="1.0" xmlns="http://www.w3.org/2000/svg"
 width="1080.000000pt" height="1080.000000pt" viewBox="0 0 1080.000000 1080.000000"
 preserveAspectRatio="xMidYMid meet">
<metadata>
Created by potrace 1.16, written by Peter Selinger 2001-2019
</metadata>
<g transform="translate(0.000000,1080.000000) scale(0.100000,-0.100000)"
fill="#000000" stroke="none">
<path d="M0 5400 l0 -5400 5395 0 5395 0 0 5400 0 5400 -5395 0 -5395 0 0
-5400z m4984 3616 c242 -72 450 -232 561 -431 48 -85 76 -94 143 -45 68 49
175 99 258 121 110 28 280 28 389 -1 317 -84 514 -359 500 -696 -8 -176 -65
-306 -189 -430 -93 -93 -196 -150 -330 -184 -118 -30 -283 -28 -412 5 -54 14
-102 29 -107 34 -5 5 2 30 17 59 31 62 71 197 80 274 6 49 5 59 -13 77 -26 26
-63 27 -84 3 -10 -10 -22 -45 -28 -78 -73 -410 -386 -706 -844 -799 -91 -19
-329 -22 -411 -6 -221 43 -403 169 -597 414 -66 83 -82 97 -107 97 -31 0 -60
-30 -60 -64 0 -17 51 -91 135 -194 19 -23 23 -33 13 -37 -42 -14 -322 -65
-359 -65 -130 0 -205 56 -286 215 -93 183 -128 321 -121 473 10 187 86 349
233 497 132 132 247 193 423 224 77 14 97 21 113 41 10 14 19 29 19 33 0 21
107 162 166 221 133 132 295 219 484 260 106 23 304 14 414 -18z m817 -1761
c116 -40 247 -58 372 -51 80 4 109 2 111 -7 28 -106 67 -290 64 -302 -9 -48
-637 -237 -1010 -304 -350 -64 -532 -81 -918 -87 -275 -5 -531 3 -545 17 -2 3
-20 65 -39 139 -19 74 -48 173 -66 219 -17 46 -27 87 -23 91 12 11 203 51 248
52 34 1 51 -7 112 -53 184 -140 392 -199 653 -186 376 19 706 176 910 432 29
36 53 65 54 65 1 0 36 -11 77 -25z m1603 -40 c165 -48 340 -134 464 -227 101
-75 177 -194 213 -335 37 -146 14 -450 -39 -523 -26 -34 -78 -68 -117 -76 -61
-11 -107 12 -221 108 -302 254 -548 405 -849 522 -164 64 -196 81 -222 119
-50 73 -39 159 31 235 84 91 197 159 320 193 104 28 296 21 420 -16z m-764
-505 c456 -164 926 -467 1249 -806 333 -348 539 -754 616 -1214 19 -113 27
-419 14 -540 -25 -230 -99 -487 -200 -699 -403 -844 -1327 -1436 -2409 -1545
-175 -18 -537 -18 -715 0 -827 83 -1575 452 -2061 1017 -368 428 -559 933
-553 1462 3 308 51 533 187 875 167 424 460 786 871 1079 101 72 115 79 135
68 62 -35 774 -44 1071 -13 568 59 1027 166 1515 355 86 33 78 34 280 -39z
m-3326 -120 c153 -34 210 -75 221 -161 8 -62 -16 -93 -127 -166 -179 -117
-292 -223 -418 -388 -88 -116 -159 -233 -221 -365 -67 -140 -62 -132 -98 -154
-55 -32 -139 -18 -182 30 -34 38 -92 171 -115 262 -50 197 -21 387 88 572 186
318 488 449 852 370z"/>
<path d="M6985 7201 c-161 -46 -334 -179 -351 -268 -9 -47 9 -103 43 -134 16
-14 95 -52 176 -83 81 -32 198 -82 259 -112 172 -85 420 -256 632 -438 91 -78
127 -94 185 -81 38 8 77 39 96 74 24 48 48 201 47 311 -1 236 -93 414 -274
533 -137 90 -328 172 -471 202 -93 20 -266 18 -342 -4z"/>
<path d="M6623 6158 c-45 -10 -88 -50 -99 -93 -3 -13 4 -69 15 -126 12 -56 21
-106 21 -110 0 -5 -23 -9 -51 -9 -210 0 -557 -110 -759 -240 -102 -66 -228
-200 -277 -295 -65 -126 -77 -184 -77 -375 0 -202 19 -290 99 -455 124 -255
347 -449 594 -518 64 -18 102 -21 241 -21 151 1 180 4 345 38 169 36 385 92
448 118 42 16 77 68 77 112 0 20 -13 94 -29 164 -31 134 -91 400 -271 1197
-60 270 -114 506 -120 526 -19 68 -81 102 -157 87z m-110 -1041 c72 -55 107
-137 109 -251 1 -120 -35 -211 -109 -276 -187 -164 -491 -42 -511 206 -14 179
109 299 348 338 101 17 122 15 163 -17z"/>
<path d="M4964 6030 c-41 -27 -51 -54 -64 -174 -6 -55 -12 -101 -14 -103 -2
-2 -39 5 -82 16 -124 31 -225 43 -372 43 -466 1 -769 -160 -906 -481 -100
-236 -111 -505 -31 -741 29 -85 117 -245 175 -319 129 -163 346 -270 640 -315
52 -9 104 -17 115 -20 11 -2 56 -7 100 -11 44 -4 91 -8 105 -11 14 -2 82 -4
151 -5 138 -1 172 8 203 57 18 27 23 68 61 504 8 102 18 210 20 240 17 182 55
618 60 690 4 47 9 92 10 100 2 9 6 60 10 115 4 55 9 108 10 117 2 9 7 64 11
122 6 90 4 109 -10 131 -41 62 -132 83 -192 45z m-461 -876 c85 -16 90 -18
118 -57 40 -56 52 -102 47 -188 -4 -87 -44 -182 -103 -247 -113 -126 -319
-128 -442 -5 -62 62 -87 124 -87 218 0 64 4 89 23 125 76 147 216 196 444 154z"/>
<path d="M7836 5910 c226 -256 411 -617 483 -945 107 -488 29 -993 -223 -1438
-175 -310 -445 -598 -766 -819 -446 -307 -965 -485 -1570 -538 -93 -8 -531 -5
-580 4 -14 2 -56 7 -95 11 -106 10 -274 42 -425 80 -835 210 -1510 727 -1831
1400 -131 275 -197 562 -200 872 -2 99 -3 109 -9 63 -14 -97 -11 -383 5 -505
78 -590 413 -1137 945 -1540 465 -352 1046 -569 1675 -625 139 -12 507 -12
645 2 650 61 1264 307 1735 693 459 377 751 858 847 1395 23 133 33 444 17
575 -39 331 -164 668 -353 954 -87 130 -221 296 -297 366 l-43 40 40 -45z"/>
<path d="M5243 3729 c-79 -13 -160 -47 -198 -83 -34 -32 -40 -49 -36 -110 7
-138 247 -350 393 -349 132 2 280 141 321 303 18 69 12 94 -32 137 -91 90
-272 131 -448 102z"/>
<path d="M3010 6579 c-270 -37 -499 -244 -601 -544 -21 -61 -24 -88 -24 -205
1 -110 5 -148 23 -205 27 -89 83 -205 109 -228 32 -28 79 -38 121 -24 34 11
41 22 112 162 174 349 348 554 632 745 91 61 113 81 120 107 13 51 -10 103
-57 130 -87 49 -304 80 -435 62z"/>
</g>
</svg>
